<svg
  width="7.500937mm"
  height="7.498292mm"
  viewBox="0 0 7.500937 7.498292"
  version="1.1"
  id="svg7981"
  xmlns="http://www.w3.org/2000/svg"
  xmlns:svg="http://www.w3.org/2000/svg">
  <g
    id="layer1">
    <!-- Hvid baggrund -->
    <rect
      class="cls-3"
      x="0.246063"
      y="0.243415"
      width="7.0088124"
      height="7.0088124"
      id="rect3526"
      style="fill:#ffffff;stroke-width:0.264583" />
    <!-- Orange ramme -->
    <path
      class="cls-14"
      d="m 7.500937,7.498292 h -7.500937 v -7.498292 h 7.500937 z m -7.006166,-0.489479 h 6.516687 v -6.519333 h -6.516687 z"
      id="path3528"
      style="fill:#ff8c00;stroke-width:0.264583" />
    <!-- Gasflamme design i midten -->
    <path
      d="M 3.75,1.8 C 3.4,2.3 3.2,2.8 3.15,3.2 3.1,3.6 3.2,3.9 3.4,4.2 3.25,4.1 3.1,3.95 3,3.7 2.9,3.45 2.85,3.2 2.9,2.9 2.6,3.3 2.5,3.7 2.55,4.1 2.6,4.5 2.8,4.8 3.1,5 2.8,5 2.55,4.9 2.35,4.7 2.15,4.5 2.05,4.25 2.05,4 1.8,4.5 1.75,5 1.9,5.4 2.05,5.8 2.3,6.1 2.7,6.2 3.1,6.3 3.5,6.25 3.85,6 4.2,5.75 4.4,5.4 4.5,4.9 4.7,5.4 4.7,5.85 4.5,6.25 4.9,6 5.2,5.65 5.35,5.2 5.5,4.75 5.45,4.3 5.2,3.85 5.5,4.1 5.75,4.4 5.9,4.8 6.05,5.2 6,5.6 5.8,6 5.6,6.4 5.2,6.7 4.7,6.85 4.2,7 3.7,7 3.2,6.8 2.7,6.6 2.3,6.3 2.05,5.9 1.8,5.5 1.7,5.05 1.75,4.6 1.8,4.15 2,3.7 2.3,3.3 2.6,2.9 3,2.6 3.45,2.4 3.9,2.2 4.4,2.15 4.9,2.2 4.5,2 4.1,1.9 3.75,1.8 Z"
      id="flame"
      style="fill:#ff8c00;stroke:#ff6600;stroke-width:0.1" />
    <!-- MR tekst nederst -->
    <text
      x="2.5"
      y="6.5"
      style="font-size:1.5px;font-weight:bold;fill:#000000;stroke-width:0.264583"
      id="text-mr">MR</text>
  </g>
</svg>
