<svg
   width="7.500937mm"
   height="7.5009398mm"
   viewBox="0 0 7.500937 7.5009399"
   version="1.1"
   id="svg8946"
   xmlns="http://www.w3.org/2000/svg"
   xmlns:svg="http://www.w3.org/2000/svg">
  <!-- Hvid baggrund -->
  <rect
     x="0"
     y="0"
     width="7.500937"
     height="7.5009399"
     fill="#ffffff" />
  
  <!-- Rød ramme omkring hele SVG'en -->
  <path
     d="m 7.500937,7.5009399 h -7.500937 v -7.5009399 h 7.500937 z m -7.006166,-0.49213 h 6.516686 v -6.51933 h -6.516686 z"
     style="fill:#bc2231;stroke-width:0.264583" />
  
  <!-- Stolper -->
  <rect
     x="0.5"
     y="1.5"
     width="0.25"
     height="4.5"
     fill="#444"
     stroke="none" />
  <rect
     x="6.75"
     y="1.5"
     width="0.25"
     height="4.5"
     fill="#444"
     stroke="none" />
  
  <!-- Skinne -->
  <rect
     x="0.5"
     y="6"
     width="6.5"
     height="0.15"
     fill="#666"
     stroke="none" />
  
  <!-- Port ramme (kun rammen, ikke udfyldt) -->
  <rect
     x="1"
     y="1.5"
     width="5.5"
     height="4.5"
     fill="none"
     stroke="#444"
     stroke-width="0.1" />
  
  <!-- Vertikale sprosser -->
  <rect
     x="1.25"
     y="1.5"
     width="0.1"
     height="4.5"
     fill="#555"
     stroke="none" />
  <rect
     x="1.75"
     y="1.5"
     width="0.1"
     height="4.5"
     fill="#555"
     stroke="none" />
  <rect
     x="2.25"
     y="1.5"
     width="0.1"
     height="4.5"
     fill="#555"
     stroke="none" />
  <rect
     x="2.75"
     y="1.5"
     width="0.1"
     height="4.5"
     fill="#555"
     stroke="none" />
  <rect
     x="3.25"
     y="1.5"
     width="0.1"
     height="4.5"
     fill="#555"
     stroke="none" />
  <rect
     x="3.75"
     y="1.5"
     width="0.1"
     height="4.5"
     fill="#555"
     stroke="none" />
  <rect
     x="4.25"
     y="1.5"
     width="0.1"
     height="4.5"
     fill="#555"
     stroke="none" />
  <rect
     x="4.75"
     y="1.5"
     width="0.1"
     height="4.5"
     fill="#555"
     stroke="none" />
  <rect
     x="5.25"
     y="1.5"
     width="0.1"
     height="4.5"
     fill="#555"
     stroke="none" />
  <rect
     x="5.75"
     y="1.5"
     width="0.1"
     height="4.5"
     fill="#555"
     stroke="none" />
  <rect
     x="6.25"
     y="1.5"
     width="0.1"
     height="4.5"
     fill="#555"
     stroke="none" />
  
  <!-- Hjul/ruller -->
  <circle
     cx="1.2"
     cy="6"
     r="0.15"
     fill="#222" />
  <circle
     cx="6.3"
     cy="6"
     r="0.15"
     fill="#222" />
  
  <!-- Kantramme -->
  <rect
     x="1"
     y="1.5"
     width="5.5"
     height="0.15"
     fill="#444"
     stroke="none" />
  <rect
     x="1"
     y="5.85"
     width="5.5"
     height="0.15"
     fill="#444"
     stroke="none" />
  <rect
     x="1"
     y="1.5"
     width="0.15"
     height="4.5"
     fill="#444"
     stroke="none" />
  <rect
     x="6.35"
     y="1.5"
     width="0.15"
     height="4.5"
     fill="#444"
     stroke="none" />
</svg>
